HIERARCHY
ROOT hip
{
	OFFSET 0.000000 0.000000 0.000000 
	CHANNELS 6 Xposition Yposition Zposition Xrotation Zrotation Yrotation
	JOINT abdomen
	{
		OFFSET 0.000000 3.402643 0.000000 
		CHANNELS 3 Xrotation Zrotation Yrotation
		JOINT chest
		{
			OFFSET 0.000000 8.438565 -0.680529 
			CHANNELS 3 Xrotation Zrotation Yrotation
			JOINT neck
			{
				OFFSET 0.000000 10.207942 -0.272212 
				CHANNELS 3 Xrotation Zrotation Yrotation
				JOINT head
				{
					OFFSET 0.000000 3.130431 0.000000 
					CHANNELS 3 Xrotation Zrotation Yrotation
					End Site
					{
						OFFSET 0.000000 3.130435 0.000000 
					}
				}
			}
			JOINT lCollar
			{
				OFFSET 3.470700 6.669187 -0.816635 
				CHANNELS 3 Yrotation Zrotation Xrotation
				JOINT lShldr
				{
					OFFSET 3.198488 0.000000 0.000000 
					CHANNELS 3 Zrotation Yrotation Xrotation
					JOINT lForeArm
					{
						OFFSET 10.139888 0.000000 0.000000 
						CHANNELS 3 Yrotation Zrotation Xrotation
						JOINT lHand
						{
							OFFSET 8.370511 0.000000 0.000000 
							CHANNELS 3 Zrotation Yrotation Xrotation
							End Site
							{
								OFFSET 4.083176 0.000000 0.000000 
							}
						}
					}
				}
			}
			JOINT rCollar
			{
				OFFSET -3.470700 6.669187 -0.816635 
				CHANNELS 3 Yrotation Zrotation Xrotation
				JOINT rShldr
				{
					OFFSET -3.198488 0.000000 0.000000 
					CHANNELS 3 Zrotation Yrotation Xrotation
					JOINT rForeArm
					{
						OFFSET -10.139888 0.000000 0.000000 
						CHANNELS 3 Yrotation Zrotation Xrotation
						JOINT rHand
						{
							OFFSET -8.370511 0.000000 0.000000 
							CHANNELS 3 Zrotation Yrotation Xrotation
							End Site
							{
								OFFSET -4.083176 0.000000 0.000000 
							}
						}
					}
				}
			}
		}
	}
	JOINT lThigh
	{
		OFFSET 5.308129 -1.633274 1.361059 
		CHANNELS 3 Xrotation Zrotation Yrotation
		JOINT lShin
		{
			OFFSET -2.041588 -20.007561 0.000000 
			CHANNELS 3 Xrotation Zrotation Yrotation
			JOINT lFoot
			{
				OFFSET 0.000000 -19.190928 -1.224953 
				CHANNELS 3 Xrotation Yrotation Zrotation
				End Site
				{
					OFFSET 0.000000 -2.449906 4.627600 
				}
			}
		}
	}
	JOINT rThigh
	{
		OFFSET -5.308129 -1.633274 1.361059 
		CHANNELS 3 Xrotation Zrotation Yrotation
		JOINT rShin
		{
			OFFSET 2.041588 -20.007561 0.000000 
			CHANNELS 3 Xrotation Zrotation Yrotation
			JOINT rFoot
			{
				OFFSET 0.000000 -19.190928 -1.224953 
				CHANNELS 3 Xrotation Yrotation Zrotation
				End Site
				{
					OFFSET 0.000000 -2.449906 4.627600 
				}
			}
		}
	}
}
MOTION
Frames: 10
Frame Time: 0.059668
0.823141 40.329388 1.947808 1.349480 2.977690 24.338100 -4.785900 5.652325 -5.710761 -2.051100 2.422425 -2.447469 11.208200 17.279800 -8.711270 12.914500 11.650800 -3.578380 2.000000 -2.000000 0.000000 -92.805397 -30.306200 -151.630005 131.231003 -0.118301 0.119961 0.064869 -0.057003 -157.731995 -2.000000 2.000000 0.000000 72.880501 8.246810 147.740997 -135.791000 0.123847 0.078767 179.891006 179.869995 -5.583760 -0.676266 -3.965415 14.099263 40.118694 2.665056 2.786973 -30.164816 4.407533 2.347994 -36.005215 -10.458221 9.845597 47.914948 -2.459240 -3.164286 -5.053565 10.621083 -1.291953 
1.251691 40.227451 2.790200 1.996300 3.679410 20.558201 -3.745420 6.939107 -7.736456 -1.605180 2.973903 -3.315624 12.568000 14.617900 -5.852800 13.071800 10.689800 -2.240760 2.000000 -2.000000 0.000000 -91.872704 -34.149502 -158.619003 130.498001 -0.119717 0.121187 0.064398 -0.055748 -157.253998 -2.000000 2.000000 0.000000 75.057701 -0.162538 148.300003 -124.560997 0.142830 0.094794 -0.116441 0.136484 170.910004 0.152674 -5.776415 15.464025 39.775928 2.658074 2.770972 -29.147251 6.336167 3.511305 -40.331745 -9.663848 10.427197 51.698219 -2.103809 -3.426019 -8.462401 6.613612 -0.932922 
1.434331 40.843800 4.328694 2.191260 3.356920 18.146299 -2.480590 9.260720 -10.194036 -1.063110 3.968880 -4.368873 11.668200 11.078200 -3.185750 12.235700 9.592620 -0.963982 2.000000 -2.000000 0.000000 94.950203 -144.526001 5.985040 132.315002 -0.116234 0.118115 0.066952 -0.062207 -159.733994 -2.000000 2.000000 0.000000 77.246696 -13.080000 147.061005 -105.000000 0.181990 0.112870 -0.126121 0.133674 166.653000 -0.279322 -4.151561 16.778444 42.902615 2.533778 2.932538 -22.305346 4.153835 1.877706 -40.562721 -6.788749 12.782966 44.618809 -2.518242 -3.010353 -9.297495 -0.559072 -1.601997 
1.487422 40.881363 6.362196 3.380090 4.611140 14.989500 -1.514941 11.149341 -11.885839 -0.649260 4.778289 -5.093931 10.671500 8.205570 0.477008 11.233100 9.074190 0.706420 2.000000 -2.000000 0.000000 -70.638603 -30.983200 160.524994 135.449997 -0.110458 0.112559 0.076048 -0.080482 -167.029007 -2.000000 2.000000 0.000000 79.042702 -23.157700 141.800003 -78.193901 0.242822 0.133832 -0.127332 0.134470 166.134995 0.282766 -4.624251 17.168961 43.882912 2.526879 2.969559 -17.615133 1.133258 0.632017 -41.669365 -5.179828 16.059454 36.786572 -2.957304 -2.536075 -9.522933 -1.771837 -1.558173 
1.439645 39.555264 8.713782 5.868150 6.518690 11.938100 -1.093050 12.820948 -11.789910 -0.468450 5.494692 -5.052819 9.929100 3.836220 3.247840 11.289000 7.977860 2.050870 2.000000 -2.000000 0.000000 -58.382999 -18.876301 134.796997 138.145004 -0.105741 0.107536 -179.917007 -179.895996 2.883010 -2.000000 2.000000 0.000000 84.346100 -31.103001 127.824997 -58.447800 0.286390 0.116511 -0.141032 0.142451 160.470993 1.489237 -7.620752 16.509272 42.925415 2.621750 2.906658 -20.368895 2.637863 1.492452 -46.411472 -4.155964 19.595644 36.870358 -2.899869 -2.555916 -7.039799 1.809148 -1.076566 
1.147783 37.414391 11.400599 9.003530 8.807890 10.921100 -1.063160 14.901200 -11.217164 -0.455640 6.386229 -4.807356 7.291570 -2.582830 5.891190 10.949200 5.977120 3.178760 2.000000 -2.000000 0.000000 -56.744598 -2.005130 118.313004 139.755997 -0.103035 0.104429 -179.903000 -179.871002 -4.743920 -2.000000 2.000000 0.000000 92.555901 -34.793098 109.566002 -47.949699 0.306420 0.101525 -0.147217 0.145489 158.009995 1.432401 -10.129496 16.306185 44.812222 2.557162 3.012400 -25.237347 4.622747 2.990743 -54.434635 -4.065518 20.780596 48.041531 -2.173267 -3.263180 -1.767726 4.990981 -1.116901 
0.936217 36.077759 14.794223 10.479600 10.769000 16.033800 -1.431920 15.375893 -9.246790 -0.613680 6.589669 -3.962910 6.285500 -6.632610 6.540200 11.090500 4.831250 3.188550 2.000000 -2.000000 0.000000 -65.694801 2.294500 120.651001 142.529999 -0.098587 0.098908 -179.903000 -179.871994 -4.568140 -2.000000 2.000000 0.000000 100.664001 -30.215900 97.211800 -44.258301 0.312766 0.095418 -0.165692 0.152723 150.919998 4.986044 -10.367311 12.386482 44.373230 2.913152 2.877098 -24.633045 3.267266 2.265703 -58.979675 -9.506239 15.460758 61.458691 -1.216341 -3.935401 -6.725830 8.762754 -0.309730 
0.543519 37.036568 18.491837 9.657140 9.909270 32.556400 -4.489171 15.454970 -7.535262 -1.923930 6.623559 -3.229398 7.570490 -6.663450 2.056550 11.420700 4.594590 0.920785 2.000000 -2.000000 0.000000 -79.418701 -2.346640 138.393005 145.820999 -0.093663 0.092086 -179.919998 -179.899002 4.074410 -2.000000 2.000000 0.000000 94.311203 -22.779499 107.070999 -46.846199 0.308358 0.099742 -0.183845 0.167180 144.220993 8.136039 -2.862819 4.509187 42.732693 3.312927 2.729716 -13.439509 -1.389988 0.326277 -50.387920 -19.643764 4.341616 65.331245 -1.003964 -4.072120 -14.086281 4.084414 -0.452822 
0.191893 39.557457 21.037085 7.754170 9.087480 49.837101 -7.102970 15.202529 -4.741254 -3.044130 6.515370 -2.031966 8.568120 -2.207380 -4.914870 11.411600 6.028270 -2.420270 2.000000 -2.000000 0.000000 -83.850998 -4.289570 143.884995 147.089996 -0.091869 0.089381 -179.923996 -179.904007 6.379110 -2.000000 2.000000 0.000000 67.527000 -9.412220 109.592003 -51.904800 0.299199 0.107599 -0.194261 0.168877 140.451004 5.677683 4.926703 0.362242 42.523670 3.452018 2.676733 -7.424317 -1.859333 0.363309 -34.365658 -23.454834 -6.960886 58.945122 -1.641564 -3.774623 -15.793593 -3.310390 -2.559731 
-0.060971 41.840935 22.235058 7.341520 8.737500 59.275902 -9.058980 11.486671 -0.881521 -3.882420 4.922859 -0.377795 8.860850 -0.050683 -9.436760 10.795300 6.823210 -4.755510 2.000000 -2.000000 0.000000 -77.415802 -5.121460 137.615997 148.554993 -0.089875 0.086210 -179.921005 -179.901001 4.855660 -2.000000 2.000000 0.000000 30.877701 7.233470 101.741997 -57.607899 0.288090 0.115449 -0.192852 0.168689 140.959000 0.891076 6.626657 0.847517 41.928207 3.193368 2.714619 -5.675411 -8.952393 -0.513634 -23.641390 -19.950375 -3.017839 50.133938 -2.524368 -3.225735 -14.158467 -5.059771 -3.243735 
